<?xml version="1.0" standalone="no"?>
<!DOCTYPE svg PUBLIC "-//W3C//DTD SVG 20010904//EN"
 "http://www.w3.org/TR/2001/REC-SVG-20010904/DTD/svg10.dtd">
<svg version="1.0" xmlns="http://www.w3.org/2000/svg"
 width="100.000000pt" height="45.000000pt" viewBox="0 0 100.000000 45.000000"
 preserveAspectRatio="xMidYMid meet">

<g transform="translate(0.000000,45.000000) scale(0.100000,-0.100000)"
fill="#000000" stroke="none">
<path d="M0 225 l0 -225 500 0 500 0 0 225 0 225 -500 0 -500 0 0 -225z m247
40 c3 -9 -2 -24 -12 -35 -9 -10 -14 -24 -10 -30 10 -16 -14 -40 -42 -40 -32 0
-38 21 -18 60 19 36 11 55 -11 26 -12 -17 -14 -17 -14 -3 0 21 27 36 68 37 20
0 35 -6 39 -15z m45 -7 c-7 -7 -12 -8 -12 -2 0 6 3 14 7 17 3 4 9 5 12 2 2 -3
-1 -11 -7 -17z m409 6 c19 -23 -8 -69 -41 -69 -15 0 -26 -7 -28 -18 -4 -20
-22 -23 -22 -4 0 7 9 30 20 52 11 21 18 40 17 41 -5 6 -67 -57 -67 -68 0 -6 7
-5 17 3 10 8 0 -7 -22 -34 -35 -42 -58 -56 -56 -34 1 4 3 6 6 5 9 -5 36 42 30
51 -3 6 11 28 32 50 41 45 89 55 114 25z m39 -34 c-16 -32 -19 -45 -10 -50 9
-6 9 -9 0 -15 -34 -21 -24 58 12 102 20 25 20 5 -2 -37z m-234 9 c3 -6 -2 -18
-12 -27 -17 -16 -17 -16 -3 2 12 17 12 19 -1 14 -16 -5 -24 -48 -9 -48 10 0
49 41 49 52 0 4 5 8 11 8 6 0 9 -6 6 -12 -20 -50 -20 -51 -7 -43 9 6 11 4 5
-4 -4 -7 -15 -11 -25 -8 -9 2 -25 0 -34 -5 -11 -6 -22 -6 -30 1 -8 6 -20 9
-29 5 -19 -7 -33 14 -18 29 15 15 14 24 -4 24 -8 0 -15 -8 -15 -17 0 -9 -7
-25 -15 -36 -14 -18 -14 -18 -15 4 0 39 17 59 50 60 24 0 30 -3 26 -14 -18
-43 -15 -45 14 -11 34 39 44 44 56 26z m376 -14 c-3 -21 -1 -24 13 -19 11 5 8
-2 -9 -21 -21 -23 -28 -25 -40 -15 -9 6 -20 9 -26 5 -6 -4 -17 -1 -25 5 -12
10 -12 15 2 36 21 32 35 31 22 -2 -15 -40 -3 -40 23 0 27 42 47 47 40 11z
m-611 -13 c-17 -32 -13 -37 10 -16 22 19 22 19 8 -4 -17 -27 -45 -25 -41 3 4
22 22 48 29 41 3 -2 0 -13 -6 -24z m89 21 c0 -4 -10 -17 -22 -30 -16 -17 -18
-23 -7 -24 8 0 6 -4 -6 -8 -34 -14 -38 0 -8 32 26 28 27 30 6 24 -13 -3 -23
-1 -23 4 0 5 14 9 30 9 17 0 30 -3 30 -7z m414 -24 c-9 -19 -11 -28 -4 -24 8
5 11 3 8 -5 -6 -20 -25 -23 -32 -5 -6 17 20 65 35 65 5 0 2 -14 -7 -31z"/>
<path d="M200 250 c-6 -12 -9 -24 -7 -27 9 -8 48 18 44 30 -6 20 -25 19 -37
-3z"/>
<path d="M174 195 c-4 -9 -3 -19 0 -23 9 -8 42 12 39 24 -4 16 -33 16 -39 -1z"/>
<path d="M657 241 c-10 -18 -13 -32 -8 -36 13 -7 54 32 49 48 -8 21 -24 17
-41 -12z"/>
</g>
</svg>
